<svg width="640" height="108" viewBox="0 0 640 108" fill="none" xmlns="http://www.w3.org/2000/svg">
<path d="M50 42.7L47.1 40.06C36.8 30.72 30 24.56 30 17C30 10.84 34.84 6 41 6C44.48 6 47.82 7.62 50 10.18C52.18 7.62 55.52 6 59 6C65.16 6 70 10.84 70 17C70 24.56 63.2 30.72 52.9 40.08L50 42.7Z" fill="#E4ABFF"/>
<path d="M16.8486 68.634C16.2966 68.634 15.8766 68.784 15.5886 69.084C15.3126 69.384 15.1746 69.828 15.1746 70.416V71.532H18.0906V72.612H15.2106V81H13.9326V72.612H12.2406V71.532H13.9326V70.362C13.9326 69.498 14.1786 68.814 14.6706 68.31C15.1746 67.806 15.8826 67.554 16.7946 67.554C17.1546 67.554 17.5026 67.608 17.8386 67.716C18.1746 67.812 18.4566 67.956 18.6846 68.148L18.2526 69.102C17.8806 68.79 17.4126 68.634 16.8486 68.634ZM22.9524 71.46C24.1884 71.46 25.1364 71.772 25.7964 72.396C26.4564 73.008 26.7864 73.92 26.7864 75.132V81H25.5624V79.524C25.2744 80.016 24.8484 80.4 24.2844 80.676C23.7324 80.952 23.0724 81.09 22.3044 81.09C21.2484 81.09 20.4084 80.838 19.7844 80.334C19.1604 79.83 18.8484 79.164 18.8484 78.336C18.8484 77.532 19.1364 76.884 19.7124 76.392C20.3004 75.9 21.2304 75.654 22.5024 75.654H25.5084V75.078C25.5084 74.262 25.2804 73.644 24.8244 73.224C24.3684 72.792 23.7024 72.576 22.8264 72.576C22.2264 72.576 21.6504 72.678 21.0984 72.882C20.5464 73.074 20.0724 73.344 19.6764 73.692L19.1004 72.738C19.5804 72.33 20.1564 72.018 20.8284 71.802C21.5004 71.574 22.2084 71.46 22.9524 71.46ZM22.5024 80.082C23.2224 80.082 23.8404 79.92 24.3564 79.596C24.8724 79.26 25.2564 78.78 25.5084 78.156V76.608H22.5384C20.9184 76.608 20.1084 77.172 20.1084 78.3C20.1084 78.852 20.3184 79.29 20.7384 79.614C21.1584 79.926 21.7464 80.082 22.5024 80.082ZM38.0378 71.532L33.8258 81H32.5118L28.3178 71.532H29.6498L33.1958 79.596L36.7778 71.532H38.0378ZM43.444 81.09C42.532 81.09 41.71 80.886 40.978 80.478C40.246 80.058 39.67 79.482 39.25 78.75C38.83 78.018 38.62 77.19 38.62 76.266C38.62 75.342 38.83 74.514 39.25 73.782C39.67 73.05 40.246 72.48 40.978 72.072C41.71 71.664 42.532 71.46 43.444 71.46C44.356 71.46 45.178 71.664 45.91 72.072C46.642 72.48 47.212 73.05 47.62 73.782C48.04 74.514 48.25 75.342 48.25 76.266C48.25 77.19 48.04 78.018 47.62 78.75C47.212 79.482 46.642 80.058 45.91 80.478C45.178 80.886 44.356 81.09 43.444 81.09ZM43.444 79.956C44.116 79.956 44.716 79.806 45.244 79.506C45.784 79.194 46.204 78.756 46.504 78.192C46.804 77.628 46.954 76.986 46.954 76.266C46.954 75.546 46.804 74.904 46.504 74.34C46.204 73.776 45.784 73.344 45.244 73.044C44.716 72.732 44.116 72.576 43.444 72.576C42.772 72.576 42.166 72.732 41.626 73.044C41.098 73.344 40.678 73.776 40.366 74.34C40.066 74.904 39.916 75.546 39.916 76.266C39.916 76.986 40.066 77.628 40.366 78.192C40.678 78.756 41.098 79.194 41.626 79.506C42.166 79.806 42.772 79.956 43.444 79.956ZM52.0831 73.386C52.3831 72.75 52.8271 72.27 53.4151 71.946C54.0151 71.622 54.7531 71.46 55.6291 71.46V72.702L55.3231 72.684C54.3271 72.684 53.5471 72.99 52.9831 73.602C52.4191 74.214 52.1371 75.072 52.1371 76.176V81H50.8591V71.532H52.0831V73.386ZM57.9431 71.532H59.2211V81H57.9431V71.532ZM58.5911 69.462C58.3271 69.462 58.1051 69.372 57.9251 69.192C57.7451 69.012 57.6551 68.796 57.6551 68.544C57.6551 68.304 57.7451 68.094 57.9251 67.914C58.1051 67.734 58.3271 67.644 58.5911 67.644C58.8551 67.644 59.0771 67.734 59.2571 67.914C59.4371 68.082 59.5271 68.286 59.5271 68.526C59.5271 68.79 59.4371 69.012 59.2571 69.192C59.0771 69.372 58.8551 69.462 58.5911 69.462ZM67.7631 80.424C67.5231 80.64 67.2231 80.808 66.8631 80.928C66.5151 81.036 66.1491 81.09 65.7651 81.09C64.8771 81.09 64.1931 80.85 63.7131 80.37C63.2331 79.89 62.9931 79.212 62.9931 78.336V72.612H61.3011V71.532H62.9931V69.462H64.2711V71.532H67.1511V72.612H64.2711V78.264C64.2711 78.828 64.4091 79.26 64.6851 79.56C64.9731 79.848 65.3811 79.992 65.9091 79.992C66.1731 79.992 66.4251 79.95 66.6651 79.866C66.9171 79.782 67.1331 79.662 67.3131 79.506L67.7631 80.424ZM73.6256 81.09C72.7136 81.09 71.8916 80.886 71.1596 80.478C70.4276 80.058 69.8516 79.482 69.4316 78.75C69.0116 78.018 68.8016 77.19 68.8016 76.266C68.8016 75.342 69.0116 74.514 69.4316 73.782C69.8516 73.05 70.4276 72.48 71.1596 72.072C71.8916 71.664 72.7136 71.46 73.6256 71.46C74.5376 71.46 75.3596 71.664 76.0916 72.072C76.8236 72.48 77.3936 73.05 77.8016 73.782C78.2216 74.514 78.4316 75.342 78.4316 76.266C78.4316 77.19 78.2216 78.018 77.8016 78.75C77.3936 79.482 76.8236 80.058 76.0916 80.478C75.3596 80.886 74.5376 81.09 73.6256 81.09ZM73.6256 79.956C74.2976 79.956 74.8976 79.806 75.4256 79.506C75.9656 79.194 76.3856 78.756 76.6856 78.192C76.9856 77.628 77.1356 76.986 77.1356 76.266C77.1356 75.546 76.9856 74.904 76.6856 74.34C76.3856 73.776 75.9656 73.344 75.4256 73.044C74.8976 72.732 74.2976 72.576 73.6256 72.576C72.9536 72.576 72.3476 72.732 71.8076 73.044C71.2796 73.344 70.8596 73.776 70.5476 74.34C70.2476 74.904 70.0976 75.546 70.0976 76.266C70.0976 76.986 70.2476 77.628 70.5476 78.192C70.8596 78.756 71.2796 79.194 71.8076 79.506C72.3476 79.806 72.9536 79.956 73.6256 79.956ZM83.5788 81.09C82.8108 81.09 82.0728 80.982 81.3648 80.766C80.6688 80.538 80.1228 80.256 79.7268 79.92L80.3028 78.912C80.6988 79.224 81.1968 79.482 81.7968 79.686C82.3968 79.878 83.0208 79.974 83.6688 79.974C84.5328 79.974 85.1688 79.842 85.5768 79.578C85.9968 79.302 86.2068 78.918 86.2068 78.426C86.2068 78.078 86.0928 77.808 85.8648 77.616C85.6368 77.412 85.3488 77.262 85.0008 77.166C84.6528 77.058 84.1908 76.956 83.6148 76.86C82.8468 76.716 82.2288 76.572 81.7608 76.428C81.2928 76.272 80.8908 76.014 80.5548 75.654C80.2308 75.294 80.0688 74.796 80.0688 74.16C80.0688 73.368 80.3988 72.72 81.0588 72.216C81.7188 71.712 82.6368 71.46 83.8128 71.46C84.4248 71.46 85.0368 71.544 85.6488 71.712C86.2608 71.868 86.7648 72.078 87.1608 72.342L86.6028 73.368C85.8228 72.828 84.8928 72.558 83.8128 72.558C82.9968 72.558 82.3788 72.702 81.9588 72.99C81.5508 73.278 81.3468 73.656 81.3468 74.124C81.3468 74.484 81.4608 74.772 81.6888 74.988C81.9288 75.204 82.2228 75.366 82.5708 75.474C82.9188 75.57 83.3988 75.672 84.0108 75.78C84.7668 75.924 85.3728 76.068 85.8288 76.212C86.2848 76.356 86.6748 76.602 86.9988 76.95C87.3228 77.298 87.4848 77.778 87.4848 78.39C87.4848 79.218 87.1368 79.878 86.4408 80.37C85.7568 80.85 84.8028 81.09 83.5788 81.09Z" fill="black"/>
<path d="M230 4C222.26 4 216 10.26 216 18C216 28.5 230 44 230 44C230 44 244 28.5 244 18C244 10.26 237.74 4 230 4ZM230 23C227.24 23 225 20.76 225 18C225 15.24 227.24 13 230 13C232.76 13 235 15.24 235 18C235 20.76 232.76 23 230 23Z" fill="#E4ABFF"/>
<path d="M194.991 67.644H196.269V81H194.991V67.644ZM203.695 81.09C202.783 81.09 201.961 80.886 201.229 80.478C200.497 80.058 199.921 79.482 199.501 78.75C199.081 78.018 198.871 77.19 198.871 76.266C198.871 75.342 199.081 74.514 199.501 73.782C199.921 73.05 200.497 72.48 201.229 72.072C201.961 71.664 202.783 71.46 203.695 71.46C204.607 71.46 205.429 71.664 206.161 72.072C206.893 72.48 207.463 73.05 207.871 73.782C208.291 74.514 208.501 75.342 208.501 76.266C208.501 77.19 208.291 78.018 207.871 78.75C207.463 79.482 206.893 80.058 206.161 80.478C205.429 80.886 204.607 81.09 203.695 81.09ZM203.695 79.956C204.367 79.956 204.967 79.806 205.495 79.506C206.035 79.194 206.455 78.756 206.755 78.192C207.055 77.628 207.205 76.986 207.205 76.266C207.205 75.546 207.055 74.904 206.755 74.34C206.455 73.776 206.035 73.344 205.495 73.044C204.967 72.732 204.367 72.576 203.695 72.576C203.023 72.576 202.417 72.732 201.877 73.044C201.349 73.344 200.929 73.776 200.617 74.34C200.317 74.904 200.167 75.546 200.167 76.266C200.167 76.986 200.317 77.628 200.617 78.192C200.929 78.756 201.349 79.194 201.877 79.506C202.417 79.806 203.023 79.956 203.695 79.956ZM215.034 81.09C214.098 81.09 213.258 80.886 212.514 80.478C211.782 80.07 211.206 79.5 210.786 78.768C210.366 78.024 210.156 77.19 210.156 76.266C210.156 75.342 210.366 74.514 210.786 73.782C211.206 73.05 211.782 72.48 212.514 72.072C213.258 71.664 214.098 71.46 215.034 71.46C215.85 71.46 216.576 71.622 217.212 71.946C217.86 72.258 218.37 72.72 218.742 73.332L217.788 73.98C217.476 73.512 217.08 73.164 216.6 72.936C216.12 72.696 215.598 72.576 215.034 72.576C214.35 72.576 213.732 72.732 213.18 73.044C212.64 73.344 212.214 73.776 211.902 74.34C211.602 74.904 211.452 75.546 211.452 76.266C211.452 76.998 211.602 77.646 211.902 78.21C212.214 78.762 212.64 79.194 213.18 79.506C213.732 79.806 214.35 79.956 215.034 79.956C215.598 79.956 216.12 79.842 216.6 79.614C217.08 79.386 217.476 79.038 217.788 78.57L218.742 79.218C218.37 79.83 217.86 80.298 217.212 80.622C216.564 80.934 215.838 81.09 215.034 81.09ZM224.565 71.46C225.801 71.46 226.749 71.772 227.409 72.396C228.069 73.008 228.399 73.92 228.399 75.132V81H227.175V79.524C226.887 80.016 226.461 80.4 225.897 80.676C225.345 80.952 224.685 81.09 223.917 81.09C222.861 81.09 222.021 80.838 221.397 80.334C220.773 79.83 220.461 79.164 220.461 78.336C220.461 77.532 220.749 76.884 221.325 76.392C221.913 75.9 222.843 75.654 224.115 75.654H227.121V75.078C227.121 74.262 226.893 73.644 226.437 73.224C225.981 72.792 225.315 72.576 224.439 72.576C223.839 72.576 223.263 72.678 222.711 72.882C222.159 73.074 221.685 73.344 221.289 73.692L220.713 72.738C221.193 72.33 221.769 72.018 222.441 71.802C223.113 71.574 223.821 71.46 224.565 71.46ZM224.115 80.082C224.835 80.082 225.453 79.92 225.969 79.596C226.485 79.26 226.869 78.78 227.121 78.156V76.608H224.151C222.531 76.608 221.721 77.172 221.721 78.3C221.721 78.852 221.931 79.29 222.351 79.614C222.771 79.926 223.359 80.082 224.115 80.082ZM231.87 67.644H233.148V81H231.87V67.644ZM236.704 71.532H237.982V81H236.704V71.532ZM237.352 69.462C237.088 69.462 236.866 69.372 236.686 69.192C236.506 69.012 236.416 68.796 236.416 68.544C236.416 68.304 236.506 68.094 236.686 67.914C236.866 67.734 237.088 67.644 237.352 67.644C237.616 67.644 237.838 67.734 238.018 67.914C238.198 68.082 238.288 68.286 238.288 68.526C238.288 68.79 238.198 69.012 238.018 69.192C237.838 69.372 237.616 69.462 237.352 69.462ZM248.216 79.938V81H240.512V80.154L246.47 72.612H240.62V71.532H248.108V72.378L242.15 79.938H248.216ZM254.043 71.46C255.279 71.46 256.227 71.772 256.887 72.396C257.547 73.008 257.877 73.92 257.877 75.132V81H256.653V79.524C256.365 80.016 255.939 80.4 255.375 80.676C254.823 80.952 254.163 81.09 253.395 81.09C252.339 81.09 251.499 80.838 250.875 80.334C250.251 79.83 249.939 79.164 249.939 78.336C249.939 77.532 250.227 76.884 250.803 76.392C251.391 75.9 252.321 75.654 253.593 75.654H256.599V75.078C256.599 74.262 256.371 73.644 255.915 73.224C255.459 72.792 254.793 72.576 253.917 72.576C253.317 72.576 252.741 72.678 252.189 72.882C251.637 73.074 251.163 73.344 250.767 73.692L250.191 72.738C250.671 72.33 251.247 72.018 251.919 71.802C252.591 71.574 253.299 71.46 254.043 71.46ZM253.593 80.082C254.313 80.082 254.931 79.92 255.447 79.596C255.963 79.26 256.347 78.78 256.599 78.156V76.608H253.629C252.009 76.608 251.199 77.172 251.199 78.3C251.199 78.852 251.409 79.29 251.829 79.614C252.249 79.926 252.837 80.082 253.593 80.082ZM262.572 73.386C262.872 72.75 263.316 72.27 263.904 71.946C264.504 71.622 265.242 71.46 266.118 71.46V72.702L265.812 72.684C264.816 72.684 264.036 72.99 263.472 73.602C262.908 74.214 262.626 75.072 262.626 76.176V81H261.348V71.532H262.572V73.386ZM200.585 103.09C199.649 103.09 198.809 102.886 198.065 102.478C197.333 102.07 196.757 101.5 196.337 100.768C195.917 100.024 195.707 99.19 195.707 98.266C195.707 97.342 195.917 96.514 196.337 95.782C196.757 95.05 197.333 94.48 198.065 94.072C198.809 93.664 199.649 93.46 200.585 93.46C201.401 93.46 202.127 93.622 202.763 93.946C203.411 94.258 203.921 94.72 204.293 95.332L203.339 95.98C203.027 95.512 202.631 95.164 202.151 94.936C201.671 94.696 201.149 94.576 200.585 94.576C199.901 94.576 199.283 94.732 198.731 95.044C198.191 95.344 197.765 95.776 197.453 96.34C197.153 96.904 197.003 97.546 197.003 98.266C197.003 98.998 197.153 99.646 197.453 100.21C197.765 100.762 198.191 101.194 198.731 101.506C199.283 101.806 199.901 101.956 200.585 101.956C201.149 101.956 201.671 101.842 202.151 101.614C202.631 101.386 203.027 101.038 203.339 100.57L204.293 101.218C203.921 101.83 203.411 102.298 202.763 102.622C202.115 102.934 201.389 103.09 200.585 103.09ZM210.515 103.09C209.603 103.09 208.781 102.886 208.049 102.478C207.317 102.058 206.741 101.482 206.321 100.75C205.901 100.018 205.691 99.19 205.691 98.266C205.691 97.342 205.901 96.514 206.321 95.782C206.741 95.05 207.317 94.48 208.049 94.072C208.781 93.664 209.603 93.46 210.515 93.46C211.427 93.46 212.249 93.664 212.981 94.072C213.713 94.48 214.283 95.05 214.691 95.782C215.111 96.514 215.321 97.342 215.321 98.266C215.321 99.19 215.111 100.018 214.691 100.75C214.283 101.482 213.713 102.058 212.981 102.478C212.249 102.886 211.427 103.09 210.515 103.09ZM210.515 101.956C211.187 101.956 211.787 101.806 212.315 101.506C212.855 101.194 213.275 100.756 213.575 100.192C213.875 99.628 214.025 98.986 214.025 98.266C214.025 97.546 213.875 96.904 213.575 96.34C213.275 95.776 212.855 95.344 212.315 95.044C211.787 94.732 211.187 94.576 210.515 94.576C209.843 94.576 209.237 94.732 208.697 95.044C208.169 95.344 207.749 95.776 207.437 96.34C207.137 96.904 206.987 97.546 206.987 98.266C206.987 98.986 207.137 99.628 207.437 100.192C207.749 100.756 208.169 101.194 208.697 101.506C209.237 101.806 209.843 101.956 210.515 101.956ZM229.738 93.46C230.926 93.46 231.856 93.802 232.528 94.486C233.212 95.17 233.554 96.178 233.554 97.51V103H232.276V97.636C232.276 96.652 232.036 95.902 231.556 95.386C231.088 94.87 230.422 94.612 229.558 94.612C228.574 94.612 227.8 94.918 227.236 95.53C226.672 96.13 226.39 96.964 226.39 98.032V103H225.112V97.636C225.112 96.652 224.872 95.902 224.392 95.386C223.924 94.87 223.252 94.612 222.376 94.612C221.404 94.612 220.63 94.918 220.054 95.53C219.49 96.13 219.208 96.964 219.208 98.032V103H217.93V93.532H219.154V95.26C219.49 94.684 219.958 94.24 220.558 93.928C221.158 93.616 221.848 93.46 222.628 93.46C223.42 93.46 224.104 93.628 224.68 93.964C225.268 94.3 225.706 94.798 225.994 95.458C226.342 94.834 226.84 94.348 227.488 94C228.148 93.64 228.898 93.46 229.738 93.46ZM241.898 93.46C242.786 93.46 243.59 93.664 244.31 94.072C245.03 94.468 245.594 95.032 246.002 95.764C246.41 96.496 246.614 97.33 246.614 98.266C246.614 99.214 246.41 100.054 246.002 100.786C245.594 101.518 245.03 102.088 244.31 102.496C243.602 102.892 242.798 103.09 241.898 103.09C241.13 103.09 240.434 102.934 239.81 102.622C239.198 102.298 238.694 101.83 238.298 101.218V106.492H237.02V93.532H238.244V95.404C238.628 94.78 239.132 94.3 239.756 93.964C240.392 93.628 241.106 93.46 241.898 93.46ZM241.808 101.956C242.468 101.956 243.068 101.806 243.608 101.506C244.148 101.194 244.568 100.756 244.868 100.192C245.18 99.628 245.336 98.986 245.336 98.266C245.336 97.546 245.18 96.91 244.868 96.358C244.568 95.794 244.148 95.356 243.608 95.044C243.068 94.732 242.468 94.576 241.808 94.576C241.136 94.576 240.53 94.732 239.99 95.044C239.462 95.356 239.042 95.794 238.73 96.358C238.43 96.91 238.28 97.546 238.28 98.266C238.28 98.986 238.43 99.628 238.73 100.192C239.042 100.756 239.462 101.194 239.99 101.506C240.53 101.806 241.136 101.956 241.808 101.956ZM250.444 95.386C250.744 94.75 251.188 94.27 251.776 93.946C252.376 93.622 253.114 93.46 253.99 93.46V94.702L253.684 94.684C252.688 94.684 251.908 94.99 251.344 95.602C250.78 96.214 250.498 97.072 250.498 98.176V103H249.22V93.532H250.444V95.386ZM259.598 93.46C260.834 93.46 261.782 93.772 262.442 94.396C263.102 95.008 263.432 95.92 263.432 97.132V103H262.208V101.524C261.92 102.016 261.494 102.4 260.93 102.676C260.378 102.952 259.718 103.09 258.95 103.09C257.894 103.09 257.054 102.838 256.43 102.334C255.806 101.83 255.494 101.164 255.494 100.336C255.494 99.532 255.782 98.884 256.358 98.392C256.946 97.9 257.876 97.654 259.148 97.654H262.154V97.078C262.154 96.262 261.926 95.644 261.47 95.224C261.014 94.792 260.348 94.576 259.472 94.576C258.872 94.576 258.296 94.678 257.744 94.882C257.192 95.074 256.718 95.344 256.322 95.692L255.746 94.738C256.226 94.33 256.802 94.018 257.474 93.802C258.146 93.574 258.854 93.46 259.598 93.46ZM259.148 102.082C259.868 102.082 260.486 101.92 261.002 101.596C261.518 101.26 261.902 100.78 262.154 100.156V98.608H259.184C257.564 98.608 256.754 99.172 256.754 100.3C256.754 100.852 256.964 101.29 257.384 101.614C257.804 101.926 258.392 102.082 259.148 102.082Z" fill="black"/>
<path d="M410 4C398.96 4 390 12.96 390 24C390 35.04 398.96 44 410 44C421.04 44 430 35.04 430 24C430 12.96 421.04 4 410 4ZM410 10C413.32 10 416 12.68 416 16C416 19.32 413.32 22 410 22C406.68 22 404 19.32 404 16C404 12.68 406.68 10 410 10ZM410 38.4C405 38.4 400.58 35.84 398 31.96C398.06 27.98 406 25.8 410 25.8C413.98 25.8 421.94 27.98 422 31.96C419.42 35.84 415 38.4 410 38.4Z" fill="#E4ABFF"/>
<path d="M389.045 67.644H390.323V81H389.045V67.644ZM397.749 81.09C396.837 81.09 396.015 80.886 395.283 80.478C394.551 80.058 393.975 79.482 393.555 78.75C393.135 78.018 392.925 77.19 392.925 76.266C392.925 75.342 393.135 74.514 393.555 73.782C393.975 73.05 394.551 72.48 395.283 72.072C396.015 71.664 396.837 71.46 397.749 71.46C398.661 71.46 399.483 71.664 400.215 72.072C400.947 72.48 401.517 73.05 401.925 73.782C402.345 74.514 402.555 75.342 402.555 76.266C402.555 77.19 402.345 78.018 401.925 78.75C401.517 79.482 400.947 80.058 400.215 80.478C399.483 80.886 398.661 81.09 397.749 81.09ZM397.749 79.956C398.421 79.956 399.021 79.806 399.549 79.506C400.089 79.194 400.509 78.756 400.809 78.192C401.109 77.628 401.259 76.986 401.259 76.266C401.259 75.546 401.109 74.904 400.809 74.34C400.509 73.776 400.089 73.344 399.549 73.044C399.021 72.732 398.421 72.576 397.749 72.576C397.077 72.576 396.471 72.732 395.931 73.044C395.403 73.344 394.983 73.776 394.671 74.34C394.371 74.904 394.221 75.546 394.221 76.266C394.221 76.986 394.371 77.628 394.671 78.192C394.983 78.756 395.403 79.194 395.931 79.506C396.471 79.806 397.077 79.956 397.749 79.956ZM413.93 71.532V79.848C413.93 81.456 413.534 82.644 412.742 83.412C411.962 84.192 410.78 84.582 409.196 84.582C408.32 84.582 407.486 84.45 406.694 84.186C405.914 83.934 405.278 83.58 404.786 83.124L405.434 82.152C405.89 82.56 406.442 82.878 407.09 83.106C407.75 83.334 408.44 83.448 409.16 83.448C410.36 83.448 411.242 83.166 411.806 82.602C412.37 82.05 412.652 81.186 412.652 80.01V78.804C412.256 79.404 411.734 79.86 411.086 80.172C410.45 80.484 409.742 80.64 408.962 80.64C408.074 80.64 407.264 80.448 406.532 80.064C405.812 79.668 405.242 79.122 404.822 78.426C404.414 77.718 404.21 76.92 404.21 76.032C404.21 75.144 404.414 74.352 404.822 73.656C405.242 72.96 405.812 72.42 406.532 72.036C407.252 71.652 408.062 71.46 408.962 71.46C409.766 71.46 410.492 71.622 411.14 71.946C411.788 72.27 412.31 72.738 412.706 73.35V71.532H413.93ZM409.088 79.506C409.772 79.506 410.39 79.362 410.942 79.074C411.494 78.774 411.92 78.36 412.22 77.832C412.532 77.304 412.688 76.704 412.688 76.032C412.688 75.36 412.532 74.766 412.22 74.25C411.92 73.722 411.494 73.314 410.942 73.026C410.402 72.726 409.784 72.576 409.088 72.576C408.404 72.576 407.786 72.72 407.234 73.008C406.694 73.296 406.268 73.704 405.956 74.232C405.656 74.76 405.506 75.36 405.506 76.032C405.506 76.704 405.656 77.304 405.956 77.832C406.268 78.36 406.694 78.774 407.234 79.074C407.786 79.362 408.404 79.506 409.088 79.506ZM417.504 71.532H418.782V81H417.504V71.532ZM418.152 69.462C417.888 69.462 417.666 69.372 417.486 69.192C417.306 69.012 417.216 68.796 417.216 68.544C417.216 68.304 417.306 68.094 417.486 67.914C417.666 67.734 417.888 67.644 418.152 67.644C418.416 67.644 418.638 67.734 418.818 67.914C418.998 68.082 419.088 68.286 419.088 68.526C419.088 68.79 418.998 69.012 418.818 69.192C418.638 69.372 418.416 69.462 418.152 69.462ZM427.162 71.46C428.35 71.46 429.292 71.808 429.988 72.504C430.696 73.188 431.05 74.19 431.05 75.51V81H429.772V75.636C429.772 74.652 429.526 73.902 429.034 73.386C428.542 72.87 427.84 72.612 426.928 72.612C425.908 72.612 425.098 72.918 424.498 73.53C423.91 74.13 423.616 74.964 423.616 76.032V81H422.338V71.532H423.562V73.278C423.91 72.702 424.39 72.258 425.002 71.946C425.626 71.622 426.346 71.46 427.162 71.46Z" fill="black"/>
<path d="M588 18H592V12H598V8H592V2H588V8H582V12H588V18ZM580 36C577.8 36 576.02 37.8 576.02 40C576.02 42.2 577.8 44 580 44C582.2 44 584 42.2 584 40C584 37.8 582.2 36 580 36ZM600 36C597.8 36 596.02 37.8 596.02 40C596.02 42.2 597.8 44 600 44C602.2 44 604 42.2 604 40C604 37.8 602.2 36 600 36ZM580.34 29.5L580.4 29.26L582.2 26H597.1C598.6 26 599.92 25.18 600.6 23.94L608.32 9.92L604.84 8H604.82L602.62 12L597.1 22H583.06L582.8 21.46L578.32 12L576.42 8L574.54 4H568V8H572L579.2 23.18L576.5 28.08C576.18 28.64 576 29.3 576 30C576 32.2 577.8 34 580 34H604V30H580.84C580.58 30 580.34 29.78 580.34 29.5Z" fill="#E4ABFF"/>
<path d="M557.983 81.09C557.047 81.09 556.207 80.886 555.463 80.478C554.731 80.07 554.155 79.5 553.735 78.768C553.315 78.024 553.105 77.19 553.105 76.266C553.105 75.342 553.315 74.514 553.735 73.782C554.155 73.05 554.731 72.48 555.463 72.072C556.207 71.664 557.047 71.46 557.983 71.46C558.799 71.46 559.525 71.622 560.161 71.946C560.809 72.258 561.319 72.72 561.691 73.332L560.737 73.98C560.425 73.512 560.029 73.164 559.549 72.936C559.069 72.696 558.547 72.576 557.983 72.576C557.299 72.576 556.681 72.732 556.129 73.044C555.589 73.344 555.163 73.776 554.851 74.34C554.551 74.904 554.401 75.546 554.401 76.266C554.401 76.998 554.551 77.646 554.851 78.21C555.163 78.762 555.589 79.194 556.129 79.506C556.681 79.806 557.299 79.956 557.983 79.956C558.547 79.956 559.069 79.842 559.549 79.614C560.029 79.386 560.425 79.038 560.737 78.57L561.691 79.218C561.319 79.83 560.809 80.298 560.161 80.622C559.513 80.934 558.787 81.09 557.983 81.09ZM567.514 71.46C568.75 71.46 569.698 71.772 570.358 72.396C571.018 73.008 571.348 73.92 571.348 75.132V81H570.124V79.524C569.836 80.016 569.41 80.4 568.846 80.676C568.294 80.952 567.634 81.09 566.866 81.09C565.81 81.09 564.97 80.838 564.346 80.334C563.722 79.83 563.41 79.164 563.41 78.336C563.41 77.532 563.698 76.884 564.274 76.392C564.862 75.9 565.792 75.654 567.064 75.654H570.07V75.078C570.07 74.262 569.842 73.644 569.386 73.224C568.93 72.792 568.264 72.576 567.388 72.576C566.788 72.576 566.212 72.678 565.66 72.882C565.108 73.074 564.634 73.344 564.238 73.692L563.662 72.738C564.142 72.33 564.718 72.018 565.39 71.802C566.062 71.574 566.77 71.46 567.514 71.46ZM567.064 80.082C567.784 80.082 568.402 79.92 568.918 79.596C569.434 79.26 569.818 78.78 570.07 78.156V76.608H567.1C565.48 76.608 564.67 77.172 564.67 78.3C564.67 78.852 564.88 79.29 565.3 79.614C565.72 79.926 566.308 80.082 567.064 80.082ZM576.043 73.386C576.343 72.75 576.787 72.27 577.375 71.946C577.975 71.622 578.713 71.46 579.589 71.46V72.702L579.283 72.684C578.287 72.684 577.507 72.99 576.943 73.602C576.379 74.214 576.097 75.072 576.097 76.176V81H574.819V71.532H576.043V73.386ZM583.127 73.386C583.427 72.75 583.871 72.27 584.459 71.946C585.059 71.622 585.797 71.46 586.673 71.46V72.702L586.367 72.684C585.371 72.684 584.591 72.99 584.027 73.602C583.463 74.214 583.181 75.072 583.181 76.176V81H581.903V71.532H583.127V73.386ZM588.987 71.532H590.265V81H588.987V71.532ZM589.635 69.462C589.371 69.462 589.149 69.372 588.969 69.192C588.789 69.012 588.699 68.796 588.699 68.544C588.699 68.304 588.789 68.094 588.969 67.914C589.149 67.734 589.371 67.644 589.635 67.644C589.899 67.644 590.121 67.734 590.301 67.914C590.481 68.082 590.571 68.286 590.571 68.526C590.571 68.79 590.481 69.012 590.301 69.192C590.121 69.372 589.899 69.462 589.635 69.462ZM598.645 71.46C599.833 71.46 600.775 71.808 601.471 72.504C602.179 73.188 602.533 74.19 602.533 75.51V81H601.255V75.636C601.255 74.652 601.009 73.902 600.517 73.386C600.025 72.87 599.323 72.612 598.411 72.612C597.391 72.612 596.581 72.918 595.981 73.53C595.393 74.13 595.099 74.964 595.099 76.032V81H593.821V71.532H595.045V73.278C595.393 72.702 595.873 72.258 596.485 71.946C597.109 71.622 597.829 71.46 598.645 71.46ZM610.827 71.46C612.015 71.46 612.957 71.808 613.653 72.504C614.361 73.188 614.715 74.19 614.715 75.51V81H613.437V75.636C613.437 74.652 613.191 73.902 612.699 73.386C612.207 72.87 611.505 72.612 610.593 72.612C609.573 72.612 608.763 72.918 608.163 73.53C607.575 74.13 607.281 74.964 607.281 76.032V81H606.003V67.644H607.281V73.188C607.629 72.636 608.109 72.21 608.721 71.91C609.333 71.61 610.035 71.46 610.827 71.46ZM622.09 81.09C621.178 81.09 620.356 80.886 619.624 80.478C618.892 80.058 618.316 79.482 617.896 78.75C617.476 78.018 617.266 77.19 617.266 76.266C617.266 75.342 617.476 74.514 617.896 73.782C618.316 73.05 618.892 72.48 619.624 72.072C620.356 71.664 621.178 71.46 622.09 71.46C623.002 71.46 623.824 71.664 624.556 72.072C625.288 72.48 625.858 73.05 626.266 73.782C626.686 74.514 626.896 75.342 626.896 76.266C626.896 77.19 626.686 78.018 626.266 78.75C625.858 79.482 625.288 80.058 624.556 80.478C623.824 80.886 623.002 81.09 622.09 81.09ZM622.09 79.956C622.762 79.956 623.362 79.806 623.89 79.506C624.43 79.194 624.85 78.756 625.15 78.192C625.45 77.628 625.6 76.986 625.6 76.266C625.6 75.546 625.45 74.904 625.15 74.34C624.85 73.776 624.43 73.344 623.89 73.044C623.362 72.732 622.762 72.576 622.09 72.576C621.418 72.576 620.812 72.732 620.272 73.044C619.744 73.344 619.324 73.776 619.012 74.34C618.712 74.904 618.562 75.546 618.562 76.266C618.562 76.986 618.712 77.628 619.012 78.192C619.324 78.756 619.744 79.194 620.272 79.506C620.812 79.806 621.418 79.956 622.09 79.956Z" fill="black"/>
</svg>
