<svg width="178" height="46" viewBox="0 0 178 46" fill="none" xmlns="http://www.w3.org/2000/svg">
<path d="M21 39C17.968 37.1283 17.0597 34.0697 17 31L7 39L5 36C2.55049 33.0501 1 30.2793 1 27C1 25.263 1.50711 23.4707 2 21C2.50782 18.5293 2.77596 16.3327 3 15C3.22404 13.6673 3 12.123 3 11C3 9.87695 2.55263 9.79362 2 9C1.4623 8.19141 1.10527 6.88346 0 6L2 3C4.53912 4.96159 6.49218 6.99349 7 9C7.17923 9.71875 7 10.862 7 12C7.01494 13.138 7.23898 13.7122 7 15C6.77596 16.2878 6.26885 17.7422 6 19C5.26814 22.444 5 25.0983 5 27C5 29.1413 5.47653 30.9635 7 33L17 26V4H21V30C21 31.153 20.5519 32.2064 21 33C21.4481 33.7936 22.9545 35.2663 24 36L21 39Z" fill="black"/>
<path d="M28 10C29.5832 10.9733 30.4175 11.9668 31 13L35 10C36.9716 11.8717 37.8649 14.9154 39 18L36 20C35.5071 18.6673 34.7169 16.9284 34 16L32 18V38H28V17C28 15.8171 26.628 15.0931 25 14L28 10Z" fill="black"/>
<path d="M49 10C52.0619 12.9648 54.4324 16.7357 55 20C55.1792 21.0182 55 21.9069 55 23C55 27.582 53.5548 30.9303 50 34L45 39L42 37V11C42 7.46615 43.3265 4.30599 46 2C46.8065 1.3112 48.059 0.509115 49 0L50 3C47.7895 4.16797 46.6871 5.90365 46 8C45.761 8.71875 46 10.1615 46 11V13L49 10ZM46 18V33L47 32C49.6586 29.6641 51 26.5039 51 23C51 20.6042 49.8073 18.1113 48 16L46 18Z" fill="black"/>
<path d="M62 33C62 33.584 62.522 34.7305 63 35L67 31V16L64 19C62.7155 20.0033 62 21.278 62 23V33ZM72 39C70.4018 38.0117 68.7319 36.2728 68 35L63 39C60.5953 38.5658 59.8812 36.752 59 35C58.6863 34.3711 58 33.8385 58 33V23C58 19.9753 58.8044 17.6471 61 16L68 10L71 12V30C71 31.153 70.5519 32.2064 71 33C71.4481 33.7936 72.9545 35.2663 74 36L72 39Z" fill="black"/>
<path d="M90 31C90 32.4974 91.0583 34.5176 93 36L91 39C88.6252 37.1582 86.4481 34.9017 86 33C85.8506 32.3861 86 31.7786 86 31C86.0149 30.2214 85.9253 29.8385 86 29C86.0597 28.1615 85.9104 26.8086 86 26C86.2091 23.8438 87 22.3027 87 21C87 19.293 86.1501 17.752 85 16L81 19V38H77V17C77 16.0716 77.0605 14.9284 76 14C75.7162 13.7604 75.2838 14.1797 75 14L77 10C78.9417 11.2728 80.4623 12.5775 81 14L86 10C88.2703 12.5456 89.2532 15.3945 90 18C90.2688 18.9284 91 20.0866 91 21C91 22.0931 90.1494 23.4427 90 25C89.7312 28.0547 90 29.847 90 31Z" fill="black"/>
<path d="M117 9C115.79 9 114.568 8.93685 114 10H110C110.329 8.41276 110.745 8.01823 112 7C113.285 5.95182 115.372 4.98503 117 5C118.912 5 120.656 5.65234 122 7C123.344 8.34766 124 10.0833 124 12C124 14.3809 122.942 16.6224 121 18C120.403 18.4193 119.687 18.7754 119 19C120.882 20.8118 122.373 22.6641 123 25C123.209 25.7786 123 25.9818 123 27C123.015 28.0033 122.418 29.8171 122 31C121.567 32.1979 120.807 32.9668 120 34C118.267 36.1862 115.972 38.0566 113 39L110 35C107.64 32.6341 106 30.8118 106 29C106 27.6823 106.85 26.3477 108 25L111 28C110.731 28.3743 110 28.7305 110 29C110 29.2695 109.851 29.6855 110 30C110.164 30.2995 110.746 30.6556 111 31C111.239 31.3444 111.671 31.6406 112 32L114 34C116.27 32.7871 118.283 31.2611 119 29C119.209 28.3112 119 27.7637 119 27C119.015 26.2363 118.373 25.7786 118 25C117.642 24.2064 117.523 23.5241 117 23L112 27L105 18L113 12L114 13C114.807 14.0033 116.044 15 117 15C117.851 15 118.417 14.584 119 14C119.597 13.401 120 12.8385 120 12C120 11.1465 119.597 10.584 119 10C118.417 9.40104 117.851 9 117 9ZM116 19C114.432 18.8503 113.165 18.0632 112 17L110 19L112 22L116 19Z" fill="black"/>
<path d="M130 42C134.75 37.2982 137 32.3724 137 28V21C137 18.9635 137.15 17.707 136 16L131 19V38H127V10C127 6.3763 129.282 4.1862 132 2C132.807 1.34115 133.059 0.509115 134 0L136 3C134.432 3.83854 133.568 5.28125 133 6C131.969 7.33268 131 8.18815 131 10V14L136 10C139.405 13.8034 141 17.4811 141 21V28C141 33.3906 138.407 38.6094 133 44L130 42Z" fill="black"/>
<path d="M145 37V20C145 17.4095 146.163 15.3776 148 14L153 10C154.404 10.9583 155.388 12.2663 156 13C157.24 14.4974 158 16.4577 158 18V28C158 30.2012 156.837 31.6074 155 33L148 39L145 37ZM150 17C149.193 17.6439 149 18.7272 149 20V33L153 30C153.792 29.431 154 29.0482 154 28V18C154 17.1315 153.702 15.7038 153 15L150 17Z" fill="black"/>
<path d="M164 36C163.492 36 162.299 36.4577 162 38H159C159.583 33.8971 161.237 32 164 32C164.299 32 163.731 31.9551 164 32V19C163.985 18.3861 164.358 17.8984 164 17C163.313 15.293 163 13.584 163 13C163 12.416 162.895 12.4043 163 12C163.119 11.5957 163.731 11.4043 164 11C164.523 10.2064 164.73 9.0931 166 8L169 11L168 12C167.238 12.7038 167 12.5807 167 13C167 13.6738 166.627 14.3262 167 15L173 10L175 13C176.344 14.5872 176.612 15.862 177 17C177.403 18.123 178 19.1315 178 20V29C178 31.9349 176.912 33.5026 175 35L170 39L168 38V46H164V36C164.269 36 163.701 35.9401 164 36ZM168 19V33C168.672 33.3594 169.806 33.8952 170 34C170.194 34.0898 169.821 33.8952 170 34L173 32C173.956 31.2363 174 30.6921 174 29V20C174 18.8171 173.12 17.4375 172 16L168 19Z" fill="black"/>
</svg>
